<svg width="484" height="398" viewBox="0 0 484 398" fill="none" xmlns="http://www.w3.org/2000/svg">
<path fill-rule="evenodd" clip-rule="evenodd" d="M471.745 198.773C425.916 278.114 340.282 331.592 242.054 331.882C143.826 332.172 57.877 279.201 11.58 200.132C57.409 120.792 143.043 67.3129 241.271 67.0229C339.5 66.7329 425.448 119.705 471.745 198.773Z" fill="white"/>
<path fill-rule="evenodd" clip-rule="evenodd" d="M334.943 200.329C335.093 251.208 293.969 292.576 243.09 292.726C192.211 292.876 150.843 251.752 150.693 200.873C150.543 149.994 191.667 108.626 242.546 108.476C293.425 108.326 334.793 149.45 334.943 200.329Z" fill="#FC895C"/>
<g opacity="0.5">
<path opacity="0.5" fill-rule="evenodd" clip-rule="evenodd" d="M23.153 89.25H0V22.512V1.00097V0.999969H23.153V1.00097H94.986V22.512H23.153V89.25Z" fill="white"/>
</g>
<path opacity="0.5" fill-rule="evenodd" clip-rule="evenodd" d="M23.153 397.905H0V376.394V309.655H23.153V376.394H94.986V397.905H23.153Z" fill="white"/>
<g opacity="0.5">
<path opacity="0.5" fill-rule="evenodd" clip-rule="evenodd" d="M483.325 309.655V376.394V397.905H460.172H388.339V376.394H460.172V309.655H483.325Z" fill="white"/>
</g>
<g opacity="0.5">
<path opacity="0.5" fill-rule="evenodd" clip-rule="evenodd" d="M460.172 22.511H388.339V1H460.172H483.325V22.511V89.25H460.172V22.511Z" fill="white"/>
</g>
</svg>
